<svg id="Capa_1" data-name="Capa 1" xmlns="http://www.w3.org/2000/svg" viewBox="0 0 424.44 68.23"><defs><style>.cls-1{fill:#002f74;}.cls-2{fill:#00e2be;}</style></defs><title>LOGO CONVERSIO</title><path class="cls-1" d="M37.3,29a17.23,17.23,0,0,0-11.46-4.39,13,13,0,0,0-9.76,3.83,13.7,13.7,0,0,0-3.74,10A13.66,13.66,0,0,0,16,48.29a12.14,12.14,0,0,0,9.17,3.8,17.19,17.19,0,0,0,9.23-2.65,21.93,21.93,0,0,0,2.45-1.76q1.1-.92,2.31-2v10.4l-0.47.33a19.8,19.8,0,0,1-6,2.94,24.5,24.5,0,0,1-6.9,1A28.33,28.33,0,0,1,21.11,60,20.34,20.34,0,0,1,6.94,50.89,21.93,21.93,0,0,1,3.28,38.42,21.75,21.75,0,0,1,7,26a20.77,20.77,0,0,1,9.92-8,22.69,22.69,0,0,1,8.44-1.62,24.53,24.53,0,0,1,3.83.31,23.9,23.9,0,0,1,9.9,4l0.53,0.36-0.5,9.48Z"/><path class="cls-1" d="M98.74,38.39A21.86,21.86,0,0,1,84.88,58.72a22.29,22.29,0,0,1-8.44,1.68A23.13,23.13,0,0,1,72,59.95a21.66,21.66,0,0,1-8.05-3.27A21.17,21.17,0,0,1,60.53,54a20.88,20.88,0,0,1-4.86-7.07A21.3,21.3,0,0,1,54,38.51a22,22,0,0,1,.11-2.24A21.07,21.07,0,0,1,57.7,26.18a22.25,22.25,0,0,1,6.23-6.09v0a23.16,23.16,0,0,1,24.82,0A22.53,22.53,0,0,1,95,26.21a21.28,21.28,0,0,1,3.75,12.19m-9.06,0a13.61,13.61,0,0,0-1-5.26,13.42,13.42,0,0,0-12.36-8.5,13.1,13.1,0,0,0-5.09,1.06q-0.42.2-1.19,0.62a10.27,10.27,0,0,0-1.11.67,13,13,0,0,0-2,1.68v0a13.79,13.79,0,0,0-1.68,2A13.49,13.49,0,0,0,64,33.11a14,14,0,0,0-1,5.25c0,0.45,0,.9.06,1.34A13.5,13.5,0,0,0,65.25,46a13.73,13.73,0,0,0,11.24,6.21,12.51,12.51,0,0,0,7.24-2.43,13,13,0,0,0,6-11.41"/><polygon class="cls-1" points="113.11 14.21 139.41 41.27 139.41 17.35 148.16 17.35 148.16 62.43 121.89 34.26 121.89 59.33 113.11 59.33 113.11 14.21"/><polygon class="cls-1" points="224.31 17.35 248.77 17.35 248.77 25.15 233.06 25.15 233.06 32.75 248.77 32.75 248.77 40.74 233.06 40.74 233.06 51.25 248.77 51.25 248.77 59.33 224.31 59.33 224.31 17.35"/><path class="cls-1" d="M277.74,42.92V59.33h-8.36v-42h10.18q2.21,0,4.46.22a13.3,13.3,0,0,1,4.18,1.09,10.47,10.47,0,0,1,6,7.94,15.92,15.92,0,0,1,.31,3.07,14.18,14.18,0,0,1-.67,4.33,9.68,9.68,0,0,1-7.58,6.91A6,6,0,0,1,290,43.23a31,31,0,0,1,3,4.68l3.08,5.79a25.6,25.6,0,0,0,4.05,5.63h-10a13.9,13.9,0,0,1-3.1-4.29q-1.2-2.53-2.42-5a25.22,25.22,0,0,0-2.78-4.45,7.68,7.68,0,0,0-4.14-2.68m0.42-8.67q1.43,0,3.33-.17a5.74,5.74,0,0,0,2.79-.81q1.23-.87,1.23-3.3a6.55,6.55,0,0,0-.39-2.38A3.82,3.82,0,0,0,282,25.51a19.2,19.2,0,0,0-3.88-.31v9.06Z"/><path class="cls-1" d="M317.32,46.22a10.14,10.14,0,0,0,2.25,4.33,6.14,6.14,0,0,0,4.68,1.59A5.66,5.66,0,0,0,327.9,51a4.3,4.3,0,0,0,1.47-3.58q0-2.43-3.13-4t-5.15-2.7a28.59,28.59,0,0,1-6.73-4.84,9.45,9.45,0,0,1-2.8-7.16v-0.5a11.44,11.44,0,0,1,4-8.39,12.46,12.46,0,0,1,8.61-3.33h0.33A15.51,15.51,0,0,1,331.39,18a13.27,13.27,0,0,1,5,5l-5.93,5.26a13.62,13.62,0,0,0-2.4-2.85,4.77,4.77,0,0,0-3.3-1.2h-0.17a4.75,4.75,0,0,0-2.86,1.12,3.48,3.48,0,0,0-1.24,2.82q0,1.71,2.12,3.17a40.48,40.48,0,0,0,4,2.45,54.7,54.7,0,0,1,8.19,5.34q3.58,2.85,3.58,8.5v0.17a11.43,11.43,0,0,1-4,8.95,15.88,15.88,0,0,1-9.71,3.74l-0.87,0a14.21,14.21,0,0,1-7.32-2,13.09,13.09,0,0,1-5.65-6.62Z"/><rect class="cls-1" x="353.6" y="17.35" width="8.78" height="41.99"/><path class="cls-1" d="M421.66,38.39A21.86,21.86,0,0,1,407.8,58.72a22.29,22.29,0,0,1-8.44,1.68,23.13,23.13,0,0,1-4.47-.45,21.66,21.66,0,0,1-8.05-3.27A21.17,21.17,0,0,1,383.45,54a20.88,20.88,0,0,1-4.87-7.07,21.3,21.3,0,0,1-1.71-8.38,22,22,0,0,1,.11-2.24,21.06,21.06,0,0,1,3.63-10.09,22.25,22.25,0,0,1,6.23-6.09v0a23.16,23.16,0,0,1,24.82,0,22.53,22.53,0,0,1,6.23,6.15,21.28,21.28,0,0,1,3.75,12.19m-9.06,0a13.61,13.61,0,0,0-1-5.26,13.42,13.42,0,0,0-12.36-8.5,13.1,13.1,0,0,0-5.09,1.06c-0.28.13-.68,0.34-1.19,0.62a10.17,10.17,0,0,0-1.11.67,13,13,0,0,0-2,1.68v0a13.73,13.73,0,0,0-1.68,2,13.49,13.49,0,0,0-1.23,2.38,14,14,0,0,0-1,5.25c0,0.45,0,.9.06,1.34A13.49,13.49,0,0,0,388.17,46a13.73,13.73,0,0,0,11.24,6.21,12.51,12.51,0,0,0,7.24-2.43,13,13,0,0,0,6-11.41"/><path class="cls-2" d="M186.24,3.87c-15.16,0-27.45,3.39-27.45,7.57S171.08,19,186.24,19s27.45-3.39,27.45-7.57-12.29-7.57-27.45-7.57m0,10.21c-8.82,0-16-1.44-16-3.21s7.15-3.21,16-3.21,16,1.44,16,3.21-7.15,3.21-16,3.21"/><path class="cls-1" d="M168.46,33.89l3.71,7.73a44.05,44.05,0,0,0,14.07,2,45.26,45.26,0,0,0,13.63-1.82L203.68,34a97.14,97.14,0,0,1-17.45,1.47,96.43,96.43,0,0,1-17.78-1.54"/><path class="cls-1" d="M186.24,48.22a66.46,66.46,0,0,1-11.35-.93L182.83,61a2.24,2.24,0,0,0,.81,1,3.41,3.41,0,0,0,1.87.38h1.31A2.29,2.29,0,0,0,188.3,62a4,4,0,0,0,.86-1l8-13.65a67.13,67.13,0,0,1-10.9.85"/><path class="cls-2" d="M179.81,21.58c-7.45-.51-15.52-1.81-18.78-3.56,0,0.16,1.81,4.08,4.39,9.5,3,1.69,9.51,2.94,17.41,3.22Z"/><path class="cls-2" d="M192.61,21.58l-3,9.16c7.67-.27,14.07-1.45,17.18-3.05,2.73-5.6,4.7-9.66,4.7-9.68-3.27,1.76-11.37,3.07-18.83,3.58"/></svg>